<svg width="435" height="435" viewBox="0 0 435 435" fill="none" xmlns="http://www.w3.org/2000/svg">
    <rect width="435" height="435" fill="url(#paint0_linear_11_9)"/>
    <rect width="435" height="435" fill="black"/>
    <path d="M163.81 130.629H197.682C173.53 156.599 192.037 176.371 204.309 183.011V215.472C213.735 231.998 226.4 222.358 231.554 215.472V181.535C258.652 167.37 246.772 141.696 237.445 130.629C239.654 129.4 248.638 127.678 266.899 130.629C285.161 133.58 289.235 151.041 288.99 159.402L240.391 239.08V287.773C222.718 322.595 201.119 302.282 192.528 287.773V239.08C180.255 219.407 153.648 175.928 145.401 159.402C142.456 142.876 156.447 133.335 163.81 130.629Z" fill="url(#paint1_linear_11_9)"/>
    <defs>
        <linearGradient id="paint0_linear_11_9" x1="188.468" y1="-75.5" x2="523.632" y2="778.06" gradientUnits="userSpaceOnUse">
            <stop stop-color="#240014"/>
            <stop offset="1"/>
        </linearGradient>
        <linearGradient id="paint1_linear_11_9" x1="214.033" y1="129.023" x2="217" y2="383" gradientUnits="userSpaceOnUse">
            <stop stop-color="white"/>
            <stop offset="0.33" stop-color="white"/>
            <stop offset="1"/>
        </linearGradient>
    </defs>
</svg>