<svg width="840" height="120" viewBox="0 0 840 120" fill="none" xmlns="http://www.w3.org/2000/svg">
    <path d="M215.801 2.071H238.853C222.416 19.141 235.011 32.137 243.363 36.501V57.838C249.778 68.701 258.397 62.364 261.905 57.838V35.531C280.347 26.221 272.262 9.345 265.914 2.071C267.417 1.263 273.531 0.131 285.959 2.071C298.387 4.011 301.16 15.488 300.993 20.983L267.919 73.356V105.362C255.892 128.251 241.192 114.899 235.345 105.362V73.356C226.993 60.425 208.886 31.846 203.273 20.983C201.269 10.121 210.79 3.849 215.801 2.071Z" fill="url(#paint0_linear_0_1)"/>
    <path d="M309.807 118V1.636H389.239V24.477H337.932V48.341H384.182V71.239H337.932V118H309.807ZM513.23 59.818C513.23 72.621 510.768 83.473 505.844 92.375C500.92 101.277 494.253 108.038 485.844 112.659C477.473 117.28 468.079 119.591 457.662 119.591C447.207 119.591 437.795 117.261 429.423 112.602C421.052 107.943 414.404 101.182 409.48 92.318C404.594 83.417 402.151 72.583 402.151 59.818C402.151 47.015 404.594 36.163 409.48 27.261C414.404 18.36 421.052 11.598 429.423 6.97701C437.795 2.35601 447.207 0.0449982 457.662 0.0449982C468.079 0.0449982 477.473 2.35601 485.844 6.97701C494.253 11.598 500.92 18.36 505.844 27.261C510.768 36.163 513.23 47.015 513.23 59.818ZM484.48 59.818C484.48 52.242 483.401 45.841 481.241 40.614C479.12 35.386 476.052 31.428 472.037 28.739C468.06 26.049 463.268 24.705 457.662 24.705C452.094 24.705 447.302 26.049 443.287 28.739C439.272 31.428 436.185 35.386 434.026 40.614C431.904 45.841 430.844 52.242 430.844 59.818C430.844 67.394 431.904 73.795 434.026 79.023C436.185 84.25 439.272 88.208 443.287 90.898C447.302 93.587 452.094 94.932 457.662 94.932C463.268 94.932 468.06 93.587 472.037 90.898C476.052 88.208 479.12 84.25 481.241 79.023C483.401 73.795 484.48 67.394 484.48 59.818ZM529.65 118V1.636H577.72C586.43 1.636 593.95 3.208 600.28 6.35201C606.64 9.458 611.54 13.928 614.99 19.761C618.44 25.557 620.16 32.432 620.16 40.386C620.16 48.455 618.4 55.311 614.88 60.955C611.36 66.561 606.36 70.841 599.88 73.795C593.4 76.712 585.73 78.17 576.87 78.17H546.47V56.011H571.64C575.88 56.011 579.42 55.462 582.26 54.364C585.14 53.227 587.32 51.523 588.8 49.25C590.28 46.939 591.01 43.985 591.01 40.386C591.01 36.788 590.28 33.814 588.8 31.466C587.32 29.08 585.14 27.299 582.26 26.125C579.39 24.913 575.84 24.307 571.64 24.307H557.78V118H529.65ZM595.16 64.818L624.14 118H593.46L565.05 64.818H595.16ZM711.95 39.648C711.31 37.261 710.36 35.159 709.11 33.341C707.86 31.485 706.33 29.913 704.51 28.625C702.69 27.337 700.61 26.371 698.26 25.727C695.91 25.045 693.33 24.705 690.53 24.705C684.89 24.705 680 26.068 675.87 28.795C671.78 31.523 668.62 35.5 666.38 40.727C664.15 45.917 663.03 52.223 663.03 59.648C663.03 67.11 664.11 73.473 666.27 78.739C668.43 84.004 671.55 88.019 675.64 90.784C679.74 93.549 684.7 94.932 690.53 94.932C695.68 94.932 700.04 94.098 703.6 92.432C707.2 90.727 709.93 88.322 711.78 85.216C713.64 82.11 714.57 78.455 714.57 74.25L719.79 74.875H691.5V54.364H741.67V69.761C741.67 80.178 739.45 89.098 735.02 96.523C730.63 103.947 724.57 109.648 716.84 113.625C709.15 117.602 700.3 119.591 690.3 119.591C679.21 119.591 669.45 117.186 661.04 112.375C652.63 107.564 646.08 100.708 641.38 91.807C636.69 82.867 634.34 72.261 634.34 59.989C634.34 50.443 635.76 41.977 638.6 34.591C641.44 27.167 645.4 20.879 650.47 15.727C655.59 10.576 661.5 6.674 668.2 4.02299C674.94 1.371 682.2 0.0449982 689.96 0.0449982C696.71 0.0449982 702.97 1.01099 708.77 2.94299C714.6 4.87499 719.75 7.602 724.22 11.125C728.73 14.648 732.39 18.833 735.19 23.682C737.99 28.53 739.74 33.852 740.42 39.648H711.95ZM758.24 118V1.636H839.38V24.477H786.37V48.341H835.23V71.239H786.37V95.159H839.38V118H758.24Z" fill="url(#paint1_linear_0_1)"/>
    <path d="M0.807007 118V1.636H28.932V50.841H30.466L68.932 1.636H102.057L60.807 53.568L102.795 118H69.159L40.182 72.261L28.932 86.466V118H0.807007ZM113.151 118V1.636H194.287V24.477H141.276V48.341H190.139V71.239H141.276V95.159H194.287V118H113.151Z" fill="url(#paint2_linear_0_1)"/>
    <defs>
        <linearGradient id="paint0_linear_0_1" x1="249.77" y1="16.68" x2="249.77" y2="132.776" gradientUnits="userSpaceOnUse">
            <stop stop-color="white"/>
            <stop offset="0.365" stop-color="white"/>
            <stop offset="1"/>
        </linearGradient>
        <linearGradient id="paint1_linear_0_1" x1="562.53" y1="-11" x2="562.53" y2="181.5" gradientUnits="userSpaceOnUse">
            <stop stop-color="white"/>
            <stop offset="0.365" stop-color="white"/>
            <stop offset="1"/>
        </linearGradient>
        <linearGradient id="paint2_linear_0_1" x1="93.176" y1="-11" x2="93.176" y2="181.5" gradientUnits="userSpaceOnUse">
            <stop stop-color="white"/>
            <stop offset="0.365" stop-color="white"/>
            <stop offset="1"/>
        </linearGradient>
    </defs>
</svg>
