<svg width="840" height="120" viewBox="0 0 840 120" fill="none" xmlns="http://www.w3.org/2000/svg">
    <path d="M215.801 2.07101H238.853C222.416 19.1407 235.011 32.1369 243.363 36.5013V57.8384C249.778 68.701 258.397 62.3644 261.905 57.8384V35.5314C280.347 26.2207 272.262 9.34501 265.914 2.07101C267.417 1.26281 273.531 0.131306 285.959 2.07101C298.387 4.01081 301.16 15.4875 300.993 20.9834L267.919 73.356V105.362C255.892 128.251 241.192 114.899 235.345 105.362V73.356C226.993 60.4247 208.886 31.8459 203.273 20.9834C201.269 10.1209 210.79 3.84911 215.801 2.07101Z" fill="black"/>
    <path d="M309.807 118V1.63643H389.239V24.4773H337.932V48.3409H384.182V71.239H337.932V118H309.807ZM513.23 59.8182C513.23 72.621 510.768 83.473 505.844 92.375C500.92 101.277 494.253 108.038 485.844 112.659C477.473 117.28 468.079 119.591 457.662 119.591C447.207 119.591 437.795 117.261 429.423 112.602C421.052 107.943 414.404 101.182 409.48 92.318C404.594 83.417 402.151 72.583 402.151 59.8182C402.151 47.0152 404.594 36.1629 409.48 27.2614C414.404 18.3598 421.052 11.5985 429.423 6.97733C437.795 2.35613 447.207 0.0455322 457.662 0.0455322C468.079 0.0455322 477.473 2.35613 485.844 6.97733C494.253 11.5985 500.92 18.3598 505.844 27.2614C510.768 36.1629 513.23 47.0152 513.23 59.8182ZM484.48 59.8182C484.48 52.2424 483.401 45.8409 481.241 40.6136C479.12 35.3864 476.052 31.428 472.037 28.7386C468.06 26.0492 463.268 24.7045 457.662 24.7045C452.094 24.7045 447.302 26.0492 443.287 28.7386C439.272 31.428 436.185 35.3864 434.026 40.6136C431.904 45.8409 430.844 52.2424 430.844 59.8182C430.844 67.394 431.904 73.795 434.026 79.023C436.185 84.25 439.272 88.208 443.287 90.898C447.302 93.587 452.094 94.932 457.662 94.932C463.268 94.932 468.06 93.587 472.037 90.898C476.052 88.208 479.12 84.25 481.241 79.023C483.401 73.795 484.48 67.394 484.48 59.8182ZM529.651 118V1.63643H577.719C586.431 1.63643 593.95 3.20833 600.276 6.35233C606.639 9.45833 611.545 13.928 614.991 19.7614C618.438 25.5568 620.162 32.4318 620.162 40.3864C620.162 48.4545 618.401 55.3106 614.878 60.9545C611.355 66.561 606.355 70.841 599.878 73.795C593.401 76.712 585.73 78.17 576.866 78.17H546.469V56.0114H571.639C575.882 56.0114 579.423 55.4621 582.264 54.3636C585.143 53.2273 587.321 51.5227 588.798 49.25C590.276 46.9394 591.014 43.9848 591.014 40.3864C591.014 36.7879 590.276 33.8144 588.798 31.4659C587.321 29.0795 585.143 27.2992 582.264 26.125C579.385 24.9129 575.844 24.3068 571.639 24.3068H557.776V118H529.651ZM595.162 64.818L624.139 118H593.457L565.048 64.818H595.162ZM711.952 39.6477C711.308 37.2614 710.361 35.1591 709.111 33.3409C707.861 31.4848 706.327 29.9129 704.509 28.625C702.69 27.3371 700.607 26.3712 698.259 25.7273C695.91 25.0455 693.334 24.7045 690.531 24.7045C684.887 24.7045 680.001 26.0682 675.872 28.7955C671.781 31.5227 668.618 35.5 666.384 40.7273C664.149 45.9167 663.031 52.2235 663.031 59.6477C663.031 67.11 664.111 73.473 666.27 78.739C668.429 84.004 671.554 88.019 675.645 90.784C679.736 93.549 684.698 94.932 690.531 94.932C695.683 94.932 700.039 94.098 703.599 92.432C707.198 90.727 709.925 88.322 711.781 85.216C713.637 82.11 714.565 78.455 714.565 74.25L719.793 74.875H691.497V54.3636H741.668V69.761C741.668 80.178 739.452 89.098 735.02 96.523C730.626 103.947 724.565 109.648 716.838 113.625C709.149 117.602 700.304 119.591 690.304 119.591C679.205 119.591 669.452 117.186 661.043 112.375C652.634 107.564 646.08 100.708 641.384 91.807C636.687 82.867 634.338 72.261 634.338 59.9886C634.338 50.4432 635.759 41.9773 638.599 34.5909C641.44 27.1667 645.399 20.8788 650.474 15.7273C655.588 10.5758 661.497 6.67423 668.202 4.02273C674.944 1.37123 682.198 0.0455322 689.963 0.0455322C696.705 0.0455322 702.974 1.01143 708.77 2.94323C714.603 4.87503 719.755 7.60233 724.224 11.125C728.732 14.6477 732.387 18.8333 735.19 23.6818C737.993 28.5303 739.736 33.8523 740.418 39.6477H711.952ZM758.244 118V1.63643H839.381V24.4773H786.369V48.3409H835.233V71.239H786.369V95.159H839.381V118H758.244Z" fill="black"/>
    <path d="M0.806885 118V1.63635H28.9319V50.8409H30.466L68.9319 1.63635H102.057L60.8069 53.5682L102.795 118H69.1592L40.1819 72.261L28.9319 86.466V118H0.806885ZM113.151 118V1.63635H194.287V24.4773H141.276V48.3409H190.139V71.239H141.276V95.159H194.287V118H113.151Z" fill="black"/>
</svg>
